<?xml version="1.0" encoding="utf-8"?>
<!-- Generator: Adobe Illustrator 22.1.0, SVG Export Plug-In . SVG Version: 6.00 Build 0)  -->
<svg version="1.1" id="Capa_1" xmlns="http://www.w3.org/2000/svg" xmlns:xlink="http://www.w3.org/1999/xlink" x="0px" y="0px"
	 viewBox="0 0 792 792" style="enable-background:new 0 0 792 792;" xml:space="preserve">
<style type="text/css">
	.st0{fill:#E1043B;}
</style>
<g>
	<g>
		<path class="st0" d="M521.8,792c0,0,71.9,0,71.9-72V72c0-72-71.9-72-71.9-72H270.2c0,0-71.9,0-71.9,72v648c0,72,71.9,72,71.9,72
			H521.8z M396,762c-19.8,0-35.9-16.1-35.9-35.9c0-19.8,16.1-35.9,35.9-35.9c19.8,0,35.9,16.1,35.9,35.9
			C431.9,745.9,415.8,762,396,762z M342.1,43.9c0-4.5,2.1-7.9,4.8-7.9h98.3c2.6,0,4.8,3.6,4.8,7.9V46c0,4.5-2.2,7.9-4.8,7.9h-98.3
			c-2.6,0-4.8-3.6-4.8-7.9V43.9z M234.3,89.9h323.5V665H234.3V89.9z"/>
	</g>
</g>
</svg>
